PathFileType	4	(X/Y/Z)	C:\Users\Basilio\Documents\Thesis Gigler\squatting_fais\c3dfiles\044\SLS_back_pre2\markers_experimental.trc
DataRate	CameraRate	NumFrames	NumMarkers	Units	OrigDataRate	OrigDataStartFrame	OrigNumFrames
200.000000	200.000000	4	63	mm	200.000000	724	1449
Frame#	Time	FHD			LBHD			RBHD			C7			T10			LSHO			LUUPA			LMUPA			LDUPA			LLEP			LMEP			LUL			LRFIN			RSHO			RUPA1			RMUPA			RDUPA			RLEP			RMEP			RUL			LASI			RASI			USACR			LSACR			RSACR			LTHI1			LTHI2			LTHI3			LTHI4			LLFC			LMFC			LTIB1			LTIB2			LTIB3			LTIB4			LLMAL			LMMAL			LHEE			LMT1			LMT2			LMT5			RTHI			RTHI2			RTHI3			RTHI4			RLFC			RMFC			RTIB1			RTIB2			RTIB3			RTIB4			RLMAL			RMMAL			RHEE			RMT1			RMT2			RMT5			RUFIN			CLAV			LRAD			RRAD			*61			*62			
		X1	Y1	Z1	X2	Y2	Z2	X3	Y3	Z3	X4	Y4	Z4	X5	Y5	Z5	X6	Y6	Z6	X7	Y7	Z7	X8	Y8	Z8	X9	Y9	Z9	X10	Y10	Z10	X11	Y11	Z11	X12	Y12	Z12	X13	Y13	Z13	X14	Y14	Z14	X15	Y15	Z15	X16	Y16	Z16	X17	Y17	Z17	X18	Y18	Z18	X19	Y19	Z19	X20	Y20	Z20	X21	Y21	Z21	X22	Y22	Z22	X23	Y23	Z23	X24	Y24	Z24	X25	Y25	Z25	X26	Y26	Z26	X27	Y27	Z27	X28	Y28	Z28	X29	Y29	Z29	X30	Y30	Z30	X31	Y31	Z31	X32	Y32	Z32	X33	Y33	Z33	X34	Y34	Z34	X35	Y35	Z35	X36	Y36	Z36	X37	Y37	Z37	X38	Y38	Z38	X39	Y39	Z39	X40	Y40	Z40	X41	Y41	Z41	X42	Y42	Z42	X43	Y43	Z43	X44	Y44	Z44	X45	Y45	Z45	X46	Y46	Z46	X47	Y47	Z47	X48	Y48	Z48	X49	Y49	Z49	X50	Y50	Z50	X51	Y51	Z51	X52	Y52	Z52	X53	Y53	Z53	X54	Y54	Z54	X55	Y55	Z55	X56	Y56	Z56	X57	Y57	Z57	X58	Y58	Z58	X59	Y59	Z59	X60	Y60	Z60	X61	Y61	Z61	X62	Y62	Z62	X63	Y63	Z63	

725	3.62	-38.29457092285157	1504.841552734375	-1044.083984375	-176.3701171875	1485.722045898438	-1115.046264648438	-216.5977020263672	1477.934692382813	-953.4478759765627	-262.5513916015626	1326.289184570313	-1037.775268554688	-386.1071777343751	1064.26025390625	-991.7025146484377	-175.1978912353516	1323.240478515625	-1175.878295898438	-26.25882148742676	1310.063842773438	-1286.97900390625	5.266574382781983	1319.458862304688	-1248.258544921875	41.39718627929688	1306.955200195313	-1294.1025390625	101.3606185913086	1308.294067382813	-1288.447387695313	97.68518066406253	1232.404052734375	-1279.047973632813	363.8101196289063	1332.71875	-1177.791259765625	361.2797241210938	1350.794921875	-1075.902954101563	-172.4514770507813	1324.112670898438	-890.9912719726565	-26.99201965332032	1312.495849609375	-785.940124511719	2.929319381713868	1324.083618164063	-825.0015258789065	42.46169662475587	1312.48681640625	-781.156921386719	103.9088973999024	1316.954467773438	-789.8166503906252	104.6113433837891	1235.06787109375	-799.7274169921877	352.6960754394532	1343.034301757813	-920.9353637695315	-328.5390625000001	831.733581542969	-1089.486450195313	-323.0764770507813	800.571228027344	-872.2114868164065	-455.9303588867189	932.676208496094	-957.806091308594	-480.8831787109376	909.5025024414065	-984.3250122070315	-469.9776611328126	905.6065673828127	-928.9346313476565	-330.1280212402344	666.0580444335939	-1160.713745117188	-250.3019104003907	635.7373046875001	-1157.967163085938	-219.056381225586	668.7581787109376	-1147.167846679688	-232.5361785888672	578.0430908203126	-1148.080932617188	-128.5441589355469	474.2182922363282	-1115.965209960938	-131.7654571533203	480.0682067871095	-999.4462890625002	-160.8418426513672	314.1672058105469	-1020.502807617188	-199.4496459960938	273.4301757812501	-1087.757080078125	-173.9580688476563	263.4357299804688	-1047.479248046875	-224.5740661621094	206.2845458984376	-1011.808410644531	-317.9917297363282	116.7587127685547	-1057.19677734375	-298.8586425781251	128.1017456054688	-970.2669067382815	-388.4119567871095	96.04972076416018	-1008.851196289063	-180.6863555908203	56.56798934936525	-982.3768310546877	-178.06201171875	62.57385635375978	-1028.54931640625	-215.3946228027344	51.48041152954103	-1076.113647460938	-402.3843383789064	549.8803100585939	-795.0259399414065	-348.8960876464844	506.7338867187501	-794.0303955078127	-318.5229797363282	514.9841308593751	-803.378601074219	-357.4237670898438	423.7920532226564	-812.6677856445315	-365.9744873046876	348.0269775390626	-835.8000488281252	-370.3365173339844	348.9352722167969	-952.5230712890627	-462.599822998047	267.1544799804688	-875.3891601562502	-551.7075195312501	323.2697448730469	-839.6343383789065	-546.9916381835939	279.6712036132813	-856.0831298828127	-591.3962402343751	260.4247131347657	-887.790954589844	-757.1361083984376	293.7233276367188	-890.826599121094	-732.5477905273439	278.3125000000001	-974.191589355469	-793.7014770507815	345.2070922851563	-946.5340576171877	-771.1514282226565	136.8026580810547	-969.6369628906252	-778.2589111328127	127.674186706543	-933.2298583984377	-816.0723266601565	159.6410827636719	-889.2190551757815	352.9170837402344	1325.036499023438	-1038.393310546875	nan	nan	nan	nan	nan	nan	nan	nan	nan	nan	nan	nan	nan	nan	nan	
726	3.625	-38.41590118408204	1504.563720703125	-1043.553955078125	-176.3252563476563	1485.570434570313	-1114.761108398438	-216.5219726562501	1477.752197265625	-953.1467895507815	-262.3715820312501	1325.998657226563	-1037.587280273438	-386.044403076172	1063.846557617188	-991.7083740234377	-175.1701049804688	1322.992309570313	-1175.611694335938	-26.0853614807129	1309.815307617188	-1286.699340820313	5.391743659973145	1319.116333007813	-1248.054321289063	41.56974792480469	1306.757446289063	-1293.869506835938	101.6002349853516	1307.990112304688	-1288.1923828125	97.67033386230472	1232.03515625	-1278.822143554688	363.7704162597657	1332.626953125	-1177.436645507813	361.3133544921876	1350.509887695313	-1075.541870117188	-172.49267578125	1323.845336914063	-890.8325805664065	-26.94525909423829	1312.09423828125	-785.5730590820315	3.017191648483277	1323.754272460938	-824.6265869140627	42.37396621704102	1312.197998046875	-780.9575805664065	103.7246932983399	1316.823364257813	-789.490661621094	104.5089569091797	1234.714965820313	-799.3276977539065	352.9192810058594	1342.415893554688	-920.2760009765627	-328.5629272460938	831.403015136719	-1089.337524414063	-323.2200927734376	800.119079589844	-872.1165161132815	-456.0826416015626	932.1967773437502	-957.7911376953127	-481.0496215820314	909.163024902344	-984.3383789062502	-470.0029602050782	905.330749511719	-929.0747680664065	-329.9193420410157	665.8770751953126	-1160.641723632813	-249.5660858154297	635.2271728515626	-1157.872314453125	-218.7730560302735	668.5596923828126	-1147.07275390625	-232.2973785400391	577.8367919921876	-1148.03076171875	-128.2765350341797	474.0799560546876	-1115.793090820313	-131.4745483398438	479.9325561523439	-999.2557373046877	-160.7471618652344	314.1440429687501	-1020.413024902344	-199.1987915039063	273.3230285644532	-1087.6943359375	-173.6610107421875	262.9885253906251	-1047.687377929688	-224.4814147949219	206.2181701660157	-1011.715393066406	-318.0134582519532	116.7530364990235	-1057.29833984375	-298.8073730468751	128.0479278564453	-970.308776855469	-388.4506835937501	96.10662841796878	-1008.799072265625	-180.6636505126953	56.57937622070314	-982.3941650390627	-178.0757293701172	62.58775329589845	-1028.552368164063	-215.2911376953126	51.38504028320314	-1076.212036132813	-402.6291503906251	549.6127929687501	-795.3658447265627	-349.0852355957032	506.8136596679689	-794.8660888671877	-318.5124206542969	514.5513916015626	-803.774841308594	-357.3112792968751	423.1889953613282	-812.776794433594	-365.8478698730469	347.6455993652344	-836.3759765625002	-370.2671203613282	348.4315185546876	-952.9554443359377	-462.6711730957032	266.9698791503907	-875.7302246093752	-551.5373535156251	323.1169128417969	-840.5028076171877	-547.0401611328126	279.5215759277344	-856.9179687500002	-591.4022827148439	260.3208923339844	-888.4849243164065	-757.0728759765626	293.8954467773438	-891.8062744140627	-732.6945800781251	277.7410583496094	-975.2687988281252	-793.8455200195315	345.5602722167969	-947.5024414062502	-771.4622802734377	136.5084381103516	-970.1492309570315	-778.3164062500002	127.9751358032227	-934.2434082031252	-816.0510253906252	159.6466217041016	-890.1177368164065	352.9036560058594	1324.756103515625	-1038.113159179688	nan	nan	nan	nan	nan	nan	nan	nan	nan	nan	nan	nan	nan	nan	nan	
727	3.63	-38.19578552246094	1504.23779296875	-1043.293334960938	-176.3615112304688	1485.736450195313	-1114.49609375	-216.4889373779297	1477.344604492188	-952.8858032226565	-262.3572082519532	1325.604370117188	-1037.360107421875	-386.0230102539064	1063.531372070313	-991.665466308594	-175.0853881835938	1322.643188476563	-1175.416015625	-26.00195312500001	1309.447387695313	-1286.5205078125	5.558337688446046	1318.774658203125	-1247.808471679688	41.63134002685548	1306.579833984375	-1293.533325195313	101.6804504394532	1307.6943359375	-1287.98681640625	97.91176605224612	1232.797973632813	-1278.440795898438	363.7671203613282	1332.6142578125	-1177.059326171875	361.3245544433594	1350.174072265625	-1075.076171875	-172.1529541015625	1323.338134765625	-890.5257568359377	-26.99283981323243	1311.654663085938	-785.219665527344	3.043990373611451	1323.36865234375	-824.344665527344	42.21926498413087	1311.860107421875	-780.6177368164065	103.6957168579102	1316.318115234375	-789.195251464844	104.4975509643555	1234.45458984375	-799.0994262695315	352.8458557128907	1342.120239257813	-919.8084106445315	-328.0209045410157	829.8482055664065	-1089.287109375	-323.2779846191407	799.5372314453127	-872.171813964844	-456.1290893554689	931.9891357421877	-957.876647949219	-481.0061645507814	909.0009765625002	-984.5537719726565	-470.1863098144532	904.8812255859377	-929.2019042968752	-329.6858520507813	665.6587524414064	-1160.620727539063	-249.8024444580079	635.5760498046876	-1157.845825195313	-218.4706268310547	668.4191894531251	-1146.89599609375	-232.0416259765626	577.6030883789064	-1148.023193359375	-128.5064849853516	474.4001464843751	-1115.71240234375	-131.3634948730469	479.7922973632814	-999.125427246094	-160.673324584961	314.0440368652344	-1020.300720214844	-199.9683532714844	272.6836547851563	-1087.79296875	-173.4156646728516	262.8129577636719	-1047.674194335938	-224.4222106933594	206.1929168701172	-1011.680908203125	-318.0883483886719	116.7793502807617	-1057.37060546875	-298.7809448242188	128.0627746582032	-970.3060302734377	-388.4480590820314	96.1071701049805	-1008.794006347656	-180.6744995117188	56.59164428710939	-982.3828735351565	-178.08544921875	62.54467773437501	-1028.56201171875	-215.3533477783204	51.4060401916504	-1076.131713867188	-402.5554504394532	549.2327270507814	-795.9334106445315	-349.1977844238282	506.5504455566407	-795.225280761719	-318.5729064941407	514.1164550781251	-804.0499267578127	-357.3885498046876	422.7756652832032	-813.192565917969	-365.9766845703126	347.2396240234376	-836.7744750976565	-369.9602355957032	347.9353637695313	-953.414978027344	-462.8111572265626	266.7455749511719	-875.8151855468752	-551.5039062500001	322.9613342285157	-841.338806152344	-547.2019042968751	279.5585937500001	-857.5759277343752	-591.3529052734376	260.3211364746094	-889.4907836914065	-757.0127563476564	294.0379028320313	-892.7152099609377	-732.6434936523439	278.2214965820313	-976.0081176757815	-793.694519042969	345.3717346191407	-948.416442871094	-771.0247192382815	136.7810516357422	-971.394470214844	-778.4479980468752	127.7405776977539	-935.3248291015627	-815.9854125976565	159.7700347900391	-891.190856933594	352.9651184082032	1324.553100585938	-1037.790161132813	nan	nan	nan	nan	nan	nan	nan	nan	nan	nan	nan	nan	nan	nan	nan	
728	3.635	-38.08622360229493	1504.014892578125	-1042.954956054688	-176.397933959961	1485.420776367188	-1114.146362304688	-216.4139404296876	1476.805419921875	-952.6422119140627	-262.1977233886719	1325.2353515625	-1037.178833007813	-385.865203857422	1063.256469726563	-991.6308593750002	-175.0297393798828	1322.247802734375	-1175.262084960938	-25.95528221130372	1309.08837890625	-1286.295288085938	5.863355636596681	1318.499877929688	-1247.546630859375	41.77418899536134	1306.300415039063	-1293.294067382813	101.7692260742188	1307.48779296875	-1287.764892578125	97.94512176513675	1231.88623046875	-1278.1845703125	363.7188415527344	1332.5087890625	-1176.65478515625	361.3627624511719	1349.641235351563	-1074.61767578125	-171.9561004638672	1322.854370117188	-890.3550415039065	-27.11137771606446	1311.477905273438	-784.9840087890627	2.95620083808899	1323.172729492188	-824.1140136718752	42.21758270263673	1311.418334960938	-780.2745361328127	103.7904739379883	1315.931396484375	-788.925231933594	104.4260635375977	1234.266723632813	-799.029968261719	352.9548950195313	1341.662963867188	-919.5576171875002	-327.8031616210938	829.6502075195315	-1089.290649414063	-323.3058166503907	799.205261230469	-872.195983886719	-456.1104125976564	931.6861572265627	-957.983093261719	-480.9671020507814	908.8034667968752	-984.7360839843752	-470.2702026367189	904.4935302734377	-929.316101074219	-329.4187622070313	665.4430541992189	-1160.681518554688	-249.4720458984376	635.4117431640626	-1157.881103515625	-218.1773834228516	668.2955932617189	-1146.812255859375	-231.7143859863282	577.4364624023439	-1148.027587890625	-128.1838531494141	474.3454589843751	-1115.565551757813	-131.2543334960938	479.7130432128907	-999.0396118164065	-160.5986022949219	313.9706115722657	-1020.156127929688	-199.8789825439454	272.5009765625001	-1087.732421875	-173.209701538086	262.6881713867188	-1047.445678710938	-224.3448486328126	206.1185302734376	-1011.64892578125	-318.0634155273438	116.8350830078125	-1057.375244140625	-298.7967834472657	128.0518951416016	-970.2734985351565	-388.4439392089845	96.09181213378909	-1008.768371582031	-180.6242828369141	56.53128051757814	-982.2397460937502	-178.049789428711	62.53675460815431	-1028.566162109375	-215.4172515869141	51.36581039428712	-1076.169067382813	-402.6111755371095	548.3632812500001	-795.5761718750002	-349.0705261230469	505.8230590820314	-795.1304321289065	-318.7275390625001	513.7431640625001	-804.237243652344	-357.1003112792969	422.0008850097657	-813.3634033203127	-366.0454711914063	347.0251159667969	-837.2339477539065	-370.5208740234376	347.7293701171876	-953.8853149414065	-462.7922668457032	266.4209899902344	-876.349548339844	-551.4101562500001	322.8718566894532	-842.0946044921877	-547.3441772460939	279.4357299804688	-858.1878051757815	-591.4793701171876	260.3208923339844	-890.0756835937502	-757.1567993164064	294.3113098144532	-893.8016357421877	-732.5982666015626	278.1631469726563	-976.9233398437502	-793.3941650390627	345.3757629394532	-949.6715087890627	-771.122985839844	136.9728088378907	-972.303649902344	-778.680847167969	127.7888870239258	-936.2485351562502	-816.240417480469	160.0878143310547	-891.9506835937502	353.1078796386719	1324.382690429688	-1037.4072265625	nan	nan	nan	nan	nan	nan	nan	nan	nan	nan	nan	nan	nan	nan	nan	
